<svg width="26" height="30" viewBox="0 0 26 30" fill="currentColor" xmlns="http://www.w3.org/2000/svg">
<path d="M24.8182 7.5H19.7955V6.9C19.7955 3.09 16.7523 0 13 0C9.24773 0 6.20455 3.09 6.20455 6.9V7.5H1.18182C0.528125 7.5 0 8.03625 0 8.7V28.8C0 29.4637 0.528125 30 1.18182 30H24.8182C25.4719 30 26 29.4637 26 28.8V8.7C26 8.03625 25.4719 7.5 24.8182 7.5ZM8.86364 6.9C8.86364 4.57875 10.7139 2.7 13 2.7C15.2861 2.7 17.1364 4.57875 17.1364 6.9V7.5H8.86364V6.9ZM23.3409 27.3H2.65909V10.2H6.20455V13.5C6.20455 13.665 6.3375 13.8 6.5 13.8H8.56818C8.73068 13.8 8.86364 13.665 8.86364 13.5V10.2H17.1364V13.5C17.1364 13.665 17.2693 13.8 17.4318 13.8H19.5C19.6625 13.8 19.7955 13.665 19.7955 13.5V10.2H23.3409V27.3Z" fill="#333"/>
</svg>
